<svg version="1.1" id="Layer_1" xmlns="http://www.w3.org/2000/svg" xmlns:xlink="http://www.w3.org/1999/xlink" x="0px" y="0px"
	 width="100%" viewBox="0 0 628 596" enable-background="new 0 0 628 596" xml:space="preserve">
<path fill="#FDFEFE" opacity="1.000000" stroke="none" 
	d="
M365.000000,597.000000 
	C243.333359,597.000000 122.166710,597.000000 1.000049,597.000000 
	C1.000033,398.333405 1.000033,199.666779 1.000016,1.000129 
	C210.333237,1.000086 419.666473,1.000086 628.999756,1.000043 
	C628.999878,199.666550 628.999878,398.333099 628.999939,596.999817 
	C541.166687,597.000000 453.333344,597.000000 365.000000,597.000000 
M101.238487,241.239410 
	C101.316978,241.585556 101.510330,241.846970 101.868065,242.740173 
	C104.032661,245.640427 105.713898,249.148163 108.452408,251.327103 
	C116.702713,257.891510 125.364418,263.938843 134.055298,270.830444 
	C135.429108,271.487671 136.802917,272.144897 138.533356,272.969757 
	C138.533356,272.969757 138.879440,273.158173 139.028427,273.813904 
	C143.781952,276.419647 148.535477,279.025391 153.630676,281.829590 
	C153.630676,281.829590 153.970566,282.031128 154.096100,282.698547 
	C155.201752,283.687195 156.307419,284.675812 157.205627,285.478973 
	C151.912827,286.508575 146.825897,287.498138 141.162582,288.625854 
	C140.770447,288.671997 140.378296,288.718170 139.567459,288.329712 
	C138.714111,288.633972 137.860764,288.938263 136.344391,289.344635 
	C135.683197,289.455688 135.022003,289.566742 133.723007,289.326782 
	C132.743286,289.760437 131.763565,290.194122 130.025330,290.796112 
	C127.805176,291.422913 125.585030,292.049713 122.772438,292.385864 
	C122.129608,292.845581 121.486778,293.305298 120.304451,293.935089 
	C119.946907,294.054932 119.589371,294.174774 118.480438,294.173737 
	C115.255196,296.017761 112.029961,297.861786 108.280876,300.006989 
	C107.605072,300.442291 106.929260,300.877625 105.595764,301.184814 
	C105.057999,301.784271 104.520241,302.383698 103.549988,303.314545 
	C103.118034,303.646393 102.686081,303.978210 101.555573,304.206024 
	C99.108932,306.868469 96.662285,309.530884 93.830353,312.725616 
	C92.529617,314.463928 91.228882,316.202240 89.267365,318.093933 
	C88.598106,319.468109 87.928848,320.842255 87.088974,322.574860 
	C87.088974,322.574860 86.910316,322.929352 86.280411,323.127991 
	C86.055367,323.875488 85.830322,324.623016 85.331589,326.004364 
	C84.790405,327.275726 84.249222,328.547058 83.203377,329.951660 
	C83.054016,330.629944 82.904655,331.308228 82.604660,332.626709 
	C82.131165,334.084137 81.657661,335.541595 80.585312,337.453400 
	C79.922623,341.754944 79.259941,346.056488 78.520599,351.018799 
	C78.485519,351.683167 78.450447,352.347504 77.769722,353.487213 
	C77.273811,356.576996 76.377106,359.663147 76.349174,362.757172 
	C76.203690,378.871399 76.196098,394.988556 76.371574,411.102173 
	C76.396622,413.402832 77.680580,415.689758 78.424263,418.649841 
	C78.481155,419.314972 78.538048,419.980103 78.216370,421.481964 
	C79.602814,427.417603 80.989258,433.353271 82.557770,439.854401 
	C82.647438,440.240082 82.737106,440.625732 82.438377,441.339020 
	C82.853241,441.957001 83.268112,442.574982 83.856651,443.895386 
	C85.340874,447.184235 86.825096,450.473053 88.175575,454.481659 
	C90.769966,457.667297 93.364357,460.852966 96.397507,464.397980 
	C96.922226,464.941895 97.446938,465.485840 98.046417,466.672333 
	C98.735115,467.076691 99.423820,467.481049 100.697670,468.227997 
	C103.367943,469.704041 106.038208,471.180084 108.946220,473.089081 
	C109.628731,473.136536 110.311241,473.183990 111.578545,473.301544 
	C111.960999,473.388763 112.343452,473.476013 113.156914,474.114685 
	C115.859253,473.915558 118.561600,473.716431 121.837646,473.372589 
	C122.228699,473.322937 122.619743,473.273285 123.383972,473.642212 
	C124.346695,473.287781 125.309418,472.933350 126.845779,472.417908 
	C127.233925,472.333893 127.622078,472.249878 128.332672,472.559479 
	C128.961533,472.165863 129.590393,471.772217 130.946747,471.187805 
	C132.834915,470.549713 134.723083,469.911652 137.304382,469.565735 
	C139.930771,468.135895 142.557144,466.706024 145.697235,465.066803 
	C146.033737,464.913605 146.370239,464.760406 147.442993,464.750702 
	C150.643082,462.849915 153.843155,460.949097 157.390366,458.859100 
	C157.390366,458.859100 157.745209,458.684845 158.476196,458.825592 
	C161.331985,456.900116 164.187775,454.974670 167.386108,452.849304 
	C167.386108,452.849304 167.738770,452.667847 168.374847,452.794220 
	C168.958664,452.253296 169.542480,451.712341 170.669632,450.765747 
	C174.043091,448.428314 177.416550,446.090881 181.439362,443.839142 
	C181.977386,443.246765 182.515427,442.654358 183.437805,441.676025 
	C183.892807,441.377045 184.347794,441.078094 185.517944,440.834381 
	C187.714233,438.933380 189.910507,437.032379 192.417603,434.898682 
	C192.417603,434.898682 192.748962,434.696320 193.422302,434.814850 
	C194.318176,433.922546 195.214050,433.030273 196.533600,431.797577 
	C196.958359,431.459106 197.383102,431.120605 198.462234,430.819275 
	C198.961304,430.197479 199.460373,429.575653 200.407776,428.522003 
	C201.554138,427.625885 202.700516,426.729767 204.524307,425.842438 
	C205.343109,424.887146 206.161896,423.931885 207.400436,422.492584 
	C208.850082,421.229797 210.299728,419.967010 212.444168,418.795013 
	C213.960815,417.194824 215.477463,415.594666 217.000000,414.000000 
	C217.000000,414.000000 216.994522,413.994080 217.635605,413.975586 
	C218.106552,413.335052 218.577515,412.694550 219.481995,411.546387 
	C223.674850,407.382111 227.867691,403.217865 232.708420,398.999451 
	C233.993622,398.216583 235.278839,397.433685 236.935165,396.949341 
	C236.935165,396.949341 237.299301,397.256348 237.274384,397.919586 
	C237.431381,398.943024 237.588364,399.966492 237.685883,401.575684 
	C237.603043,401.958923 237.520203,402.342194 236.885117,403.141571 
	C236.375916,404.542633 235.555176,405.911377 235.405823,407.349792 
	C233.951523,421.357300 231.956528,435.350250 231.393234,449.398590 
	C230.608749,468.963654 230.265366,488.627625 234.171326,507.983978 
	C235.485779,514.497925 237.783600,520.813416 239.793869,527.738525 
	C240.039993,528.208069 240.286118,528.677673 240.652725,529.887573 
	C246.428406,543.978455 255.880844,550.340942 271.112976,550.421021 
	C283.439453,550.485901 294.784271,546.625061 305.517181,541.114136 
	C329.551697,528.773376 350.915131,512.524963 370.335205,493.933319 
	C383.982086,480.868500 391.098083,464.464661 390.460480,445.059570 
	C389.884949,427.545044 382.935181,412.519531 373.347504,398.380524 
	C372.242065,396.750275 371.320343,394.995422 370.313446,393.298340 
	C380.976685,396.811493 390.731018,401.156342 400.647858,405.091675 
	C411.462982,409.383453 422.179749,414.132050 434.147827,414.426697 
	C451.742340,414.859863 467.018646,408.361450 481.244385,398.777710 
	C504.642761,383.014435 523.022461,362.188782 539.762146,339.845428 
	C547.223572,329.886230 553.847900,319.299866 561.253845,308.678619 
	C561.230835,308.365204 561.207825,308.051788 561.869385,307.428925 
	C562.076355,306.982544 562.283325,306.536163 563.030823,305.799225 
	C563.697083,304.553802 564.363342,303.308411 565.632874,301.801147 
	C567.094116,299.206024 568.555359,296.610901 570.559326,293.708344 
	C570.995789,292.792084 571.432190,291.875793 572.417908,290.677948 
	C572.631897,290.121521 572.845886,289.565094 573.311584,288.820618 
	C573.311584,288.820618 573.271301,288.509186 573.871033,288.173737 
	C577.296936,282.114014 580.957764,276.173065 584.094727,269.967224 
	C589.052979,260.158417 585.981628,250.223892 575.929077,245.835770 
	C564.404114,240.804962 552.714172,235.687439 540.585999,232.630096 
	C527.684937,229.377884 514.186768,228.494370 500.253265,226.297760 
	C499.763977,226.361557 499.274658,226.425354 498.186981,225.989304 
	C491.855255,226.148972 485.523529,226.308640 478.412384,226.255142 
	C477.626434,226.380508 476.840515,226.505859 475.303925,226.339096 
	C455.559113,227.018768 436.330353,230.882553 417.372681,236.110641 
	C371.827118,248.671051 330.326447,269.821808 291.222565,295.990814 
	C289.788696,296.950348 288.294647,297.819977 286.057251,299.211212 
	C285.852386,296.666168 285.657410,295.089478 285.608246,293.508301 
	C284.657349,262.915680 280.185028,232.777847 273.384399,202.996857 
	C270.954681,192.356964 267.355621,181.984116 264.351990,170.963455 
	C264.217316,170.640472 264.082611,170.317505 264.008026,169.232986 
	C263.057587,167.004379 262.107147,164.775757 260.775909,161.869461 
	C257.087158,153.065628 253.398392,144.261795 249.634293,135.377838 
	C249.634293,135.377838 249.687607,135.281647 249.766388,134.795502 
	C249.698700,134.451004 249.521896,134.176651 249.236664,133.212082 
	C248.952728,132.808456 248.668793,132.404846 248.437592,131.370956 
	C247.695786,130.339828 246.953995,129.308701 246.448120,127.822334 
	C246.268997,127.548141 246.089874,127.273949 245.909973,126.276512 
	C240.810349,117.787598 235.710724,109.298683 230.478348,100.271088 
	C230.316376,100.181824 230.154419,100.092560 229.942581,99.366585 
	C229.291000,98.585938 228.639435,97.805290 227.993454,96.461273 
	C227.493225,95.931122 226.993011,95.400970 226.326584,94.156914 
	C216.822647,83.558372 207.318710,72.959831 197.668076,62.327042 
	C197.668076,62.327042 197.626129,62.182350 197.480759,61.581589 
	C187.107590,52.567329 176.740021,43.545147 163.719666,37.525917 
	C163.411011,37.350330 163.123337,37.379753 162.604599,36.951847 
	C156.866943,33.410179 151.220673,29.448404 143.413834,32.808800 
	C143.264420,32.918362 143.115005,33.027927 142.266510,33.099846 
	C140.244125,34.483105 137.414230,35.415726 136.345322,37.331085 
	C132.602829,44.037270 129.467575,51.082344 125.758545,58.374420 
	C125.766739,58.543835 125.774925,58.713245 125.235291,59.236134 
	C124.535240,61.145344 123.835190,63.054554 122.761101,65.373581 
	C122.773994,65.558083 122.786880,65.742577 122.342834,66.310417 
	C122.212494,66.876854 122.082153,67.443298 121.579033,68.302673 
	C121.579033,68.302673 121.611359,68.775681 121.190536,68.987839 
	C121.044815,69.686615 120.899094,70.385391 120.270744,71.563934 
	C120.124390,72.218552 119.978035,72.873161 119.331436,73.833763 
	C118.587929,75.880348 117.844421,77.926933 116.774567,80.403320 
	C116.794044,80.582146 116.813530,80.760979 116.331512,81.403343 
	C111.751656,94.935226 107.171791,108.467110 102.145615,122.574394 
	C102.113594,123.049530 102.081573,123.524666 101.623947,124.555565 
	C100.979546,127.403976 100.335144,130.252396 99.254784,133.623795 
	C99.092514,134.721161 98.930244,135.818512 98.284203,137.414795 
	C96.001823,149.569702 93.424019,161.679642 91.564095,173.898849 
	C90.660202,179.837173 91.099144,185.979904 90.580208,192.713287 
	C90.667191,193.451492 90.754166,194.189713 90.436157,195.635086 
	C90.874557,202.058502 90.571548,208.645370 91.942505,214.863174 
	C93.587601,222.324310 96.659569,229.470856 99.190750,236.867630 
	C99.190750,236.867630 99.328369,236.869125 99.066559,237.383972 
	C99.795242,238.456177 100.523926,239.528366 101.371063,240.642578 
	C101.371063,240.642578 101.309380,240.752075 101.238487,241.239410 
z"/>
<path fill="#2A5B92" opacity="1.000000" stroke="none" 
	d="
M157.745209,458.684845 
	C157.745209,458.684845 157.390366,458.859100 156.851807,458.927338 
	C153.111069,460.866119 149.908905,462.736664 146.706741,464.607208 
	C146.370239,464.760406 146.033737,464.913605 145.078812,465.123047 
	C141.844009,466.544067 139.227615,467.908813 136.611237,469.273560 
	C134.723083,469.911652 132.834915,470.549713 130.264114,471.208923 
	C129.057724,471.541992 128.533966,471.853912 128.010223,472.165863 
	C127.622078,472.249878 127.233925,472.333893 126.218163,472.362061 
	C124.730629,472.612030 123.870712,472.917847 123.010796,473.223633 
	C122.619743,473.273285 122.228699,473.322937 121.098969,473.275482 
	C117.815498,473.306671 115.270699,473.434967 112.725906,473.563293 
	C112.343452,473.476013 111.960999,473.388763 111.087677,473.000610 
	C109.967369,472.685181 109.337929,472.670654 108.708481,472.656128 
	C106.038208,471.180084 103.367943,469.704041 100.338882,467.749847 
	C99.310616,466.857727 98.641136,466.443726 97.971657,466.029755 
	C97.446938,465.485840 96.922226,464.941895 96.154648,463.874146 
	C93.377632,460.154205 90.843483,456.958038 88.309326,453.761902 
	C86.825096,450.473053 85.340874,447.184235 83.836136,443.224365 
	C83.486008,442.039398 83.156395,441.525391 82.826782,441.011414 
	C82.737106,440.625732 82.647438,440.240082 82.586472,439.183380 
	C81.275093,432.556641 79.935020,426.600952 78.594940,420.645233 
	C78.538048,419.980103 78.481155,419.314972 78.622368,418.004608 
	C78.548294,400.982117 78.224869,384.605499 78.034439,368.227264 
	C77.975494,363.157623 78.278221,358.083801 78.415359,353.011871 
	C78.450447,352.347504 78.485519,351.683167 78.837692,350.464783 
	C79.831245,345.606842 80.507698,341.302917 81.184158,336.999023 
	C81.657661,335.541595 82.131165,334.084137 82.965424,332.145691 
	C83.453476,331.049255 83.580750,330.433838 83.708031,329.818420 
	C84.249222,328.547058 84.790405,327.275726 85.734741,325.547729 
	C86.395370,324.370483 86.652847,323.649933 86.910324,322.929352 
	C86.910316,322.929352 87.088974,322.574860 87.483109,322.285583 
	C88.560875,320.644409 89.244514,319.292480 89.928154,317.940552 
	C91.228882,316.202240 92.529617,314.463928 94.346550,312.379059 
	C97.326538,309.458344 99.790337,306.884216 102.254135,304.310059 
	C102.686081,303.978210 103.118034,303.646393 104.078285,303.156555 
	C105.155540,302.436707 105.704498,301.874817 106.253456,301.312927 
	C106.929260,300.877625 107.605072,300.442291 108.900482,299.898071 
	C112.757332,297.957611 115.994583,296.126129 119.231827,294.294617 
	C119.589371,294.174774 119.946907,294.054932 120.868607,293.917603 
	C122.076797,293.492249 122.720840,293.084381 123.364883,292.676544 
	C125.585030,292.049713 127.805176,291.422913 130.728409,290.797852 
	C132.407928,290.425659 133.384369,290.051727 134.360809,289.677795 
	C135.022003,289.566742 135.683197,289.455688 136.901733,289.474457 
	C138.301422,289.324280 139.143799,289.044312 139.986160,288.764313 
	C140.378296,288.718170 140.770447,288.671997 141.885010,288.727295 
	C149.316376,288.451172 156.025314,288.073639 162.734238,287.696106 
	C162.839539,287.157043 162.944839,286.617981 163.050125,286.078888 
	C160.023605,284.729645 156.997086,283.380402 153.970566,282.031128 
	C153.970566,282.031128 153.630676,281.829590 153.340500,281.419128 
	C148.326691,278.391846 143.603058,275.775024 138.879440,273.158173 
	C138.879440,273.158173 138.533356,272.969757 138.257324,272.568420 
	C136.609436,271.507355 135.237564,270.847595 133.865692,270.187836 
	C125.364418,263.938843 116.702713,257.891510 108.452408,251.327103 
	C105.713898,249.148163 104.032661,245.640427 102.179375,242.333649 
	C102.783455,241.504410 103.076225,241.081696 103.368988,240.658997 
	C102.682449,240.690033 101.995918,240.721054 101.309380,240.752075 
	C101.309380,240.752075 101.371063,240.642578 101.515701,240.255600 
	C100.883018,238.868790 100.105690,237.868958 99.328369,236.869125 
	C99.328369,236.869125 99.190750,236.867630 99.551971,236.780640 
	C100.034813,235.882156 100.450050,234.980270 100.232452,234.273163 
	C98.164032,227.551758 94.037682,221.434540 94.873169,213.851578 
	C95.077934,211.993149 93.682709,209.958435 93.016632,207.535614 
	C93.011948,197.709732 93.013718,188.353027 93.299942,178.743073 
	C94.051598,176.909500 94.849152,175.346497 94.933289,173.746002 
	C95.561249,161.800186 97.571609,150.101730 100.714653,138.571121 
	C100.809769,138.222168 99.449623,137.476562 98.767975,136.915878 
	C98.930244,135.818512 99.092514,134.721161 99.837341,133.291000 
	C101.560516,130.412872 102.741425,127.883255 103.754448,125.288101 
	C103.824768,125.107956 102.646942,124.440590 102.049545,123.999802 
	C102.081573,123.524666 102.113594,123.049530 102.699425,122.256638 
	C104.470421,118.728241 105.636581,115.497139 106.914314,112.310783 
	C110.817902,102.576195 114.794312,92.870438 118.593643,83.095650 
	C118.759277,82.669525 117.453415,81.671455 116.833008,80.939804 
	C116.813530,80.760979 116.794044,80.582146 117.239273,80.037285 
	C119.203529,77.897141 123.658455,77.146591 119.831680,73.527779 
	C119.978035,72.873161 120.124390,72.218552 120.848167,71.264771 
	C121.487511,70.235634 121.549438,69.505653 121.611359,68.775681 
	C121.611359,68.775681 121.579033,68.302673 122.110458,68.143494 
	C123.260147,67.678940 123.878410,67.373558 124.496681,67.068184 
	C123.931038,66.687813 123.365402,66.307442 122.799759,65.927071 
	C122.786880,65.742577 122.773994,65.558083 123.216934,65.030930 
	C124.376213,62.753071 125.079666,60.817863 125.783112,58.882660 
	C125.774925,58.713245 125.766739,58.543835 126.303833,58.170609 
	C127.328453,57.845844 128.066391,57.882088 128.249420,57.581001 
	C133.189529,49.454269 138.072769,41.292965 142.965607,33.137489 
	C143.115005,33.027927 143.264420,32.918362 143.780182,33.252758 
	C145.793365,34.131718 147.423218,34.651421 149.090256,34.985485 
	C153.670700,35.903374 158.266739,36.743362 162.856613,37.614182 
	C163.123337,37.379753 163.411011,37.350330 163.868408,38.093143 
	C164.755081,39.633308 165.314087,40.852299 166.259583,41.539814 
	C173.138565,46.541904 179.902481,51.747242 187.112427,56.229347 
	C190.496628,58.333160 192.189209,63.713089 197.626129,62.182350 
	C197.626129,62.182350 197.668076,62.327042 197.517761,62.696697 
	C197.551590,63.827003 197.498917,64.793732 197.954956,65.317757 
	C206.356888,74.972130 214.790573,84.599602 223.332565,94.129662 
	C223.924637,94.790222 225.418365,94.642601 226.492798,94.870819 
	C226.993011,95.400970 227.493225,95.931122 227.870941,97.046188 
	C228.496445,98.421837 229.244446,99.212570 229.992447,100.003296 
	C230.154419,100.092560 230.316376,100.181824 230.201691,100.704956 
	C229.755234,101.866577 229.196884,102.830063 229.473938,103.286690 
	C233.595642,110.079956 237.759186,116.850792 242.089645,123.512001 
	C242.999298,124.911247 244.618500,125.849228 245.910751,126.999756 
	C246.089874,127.273949 246.268997,127.548141 246.275772,128.445480 
	C246.863907,130.046158 247.624374,131.023697 248.384857,132.001221 
	C248.668793,132.404846 248.952728,132.808456 248.895966,133.638245 
	C248.244186,134.481094 247.933090,134.897781 247.622009,135.314468 
	C248.310547,135.303528 248.999069,135.292587 249.687607,135.281647 
	C249.687607,135.281647 249.634293,135.377838 249.457031,135.822327 
	C251.712418,143.155807 254.026230,150.090012 256.622192,156.916916 
	C258.185394,161.027786 260.187775,164.971664 261.997131,168.995941 
	C262.001465,169.001282 262.009308,169.010101 262.002869,169.404922 
	C262.664795,171.199829 263.333160,172.599915 264.000793,174.000000 
	C264.000000,174.000000 264.000000,173.998169 263.996948,174.365097 
	C264.329254,175.823181 264.664612,176.914337 265.000122,178.378006 
	C265.000946,179.495544 265.001709,180.240570 265.039246,181.301941 
	C265.691162,182.062790 266.306244,182.507324 266.943420,183.294403 
	C266.977936,184.094437 266.990387,184.551926 267.001160,185.373383 
	C267.329437,186.819000 267.659424,187.900681 267.992615,189.400085 
	C269.629456,197.328979 271.539764,204.792770 272.835724,212.361771 
	C275.111938,225.655853 277.366028,238.971817 278.973785,252.357361 
	C280.708405,266.799072 281.627502,281.337494 283.086761,295.815186 
	C283.257324,297.507355 284.213348,299.845947 285.504761,300.496643 
	C286.810425,301.154572 289.284180,300.577240 290.732574,299.696381 
	C301.595123,293.090668 312.251312,286.144836 323.130646,279.567780 
	C331.900085,274.266266 340.597107,268.701477 349.852600,264.381042 
	C363.727722,257.904205 378.011719,252.285355 392.227936,246.565430 
	C398.485596,244.047668 404.908051,241.808365 411.430237,240.114746 
	C418.561035,238.263092 426.021118,237.646118 433.109344,235.671371 
	C444.714264,232.438324 456.433411,230.441452 468.458740,229.920471 
	C470.990356,229.810791 473.478821,228.704132 476.457031,228.039017 
	C484.955627,228.034409 492.984344,228.047653 501.274536,228.336670 
	C506.607330,229.212280 511.744751,229.482468 516.735840,230.482742 
	C526.220703,232.383667 535.615540,234.730103 545.059326,236.840149 
	C555.882751,239.258438 566.182190,243.088150 575.821472,248.548935 
	C582.640930,252.412277 585.498169,263.605286 581.651184,270.233765 
	C578.416687,275.807007 575.218933,281.401550 571.775146,287.164734 
	C572.050232,287.898071 572.555115,288.453369 573.059937,289.008698 
	C572.845886,289.565094 572.631897,290.121521 571.926636,290.829224 
	C571.435303,290.980499 571.001648,290.995056 570.852783,290.837952 
	C570.470093,291.119354 570.236267,291.557861 570.001221,291.998169 
	C570.000000,292.000000 569.997559,292.002441 569.677612,292.042786 
	C568.903809,292.719635 568.450012,293.356140 567.727173,294.188843 
	C566.648560,296.944366 565.839111,299.503693 565.029663,302.063019 
	C564.363342,303.308411 563.697083,304.553802 562.405396,306.088379 
	C561.581604,306.831146 561.383179,307.284760 561.184753,307.738373 
	C561.207825,308.051788 561.230835,308.365204 560.700012,308.847778 
	C559.048035,309.905640 557.705261,310.612671 556.889343,311.711029 
	C548.307129,323.264008 540.337402,335.319336 531.146790,346.360352 
	C520.910950,358.657074 510.127106,370.611877 498.584900,381.675507 
	C486.519165,393.241028 473.032928,403.297211 456.691254,408.315582 
	C449.900146,410.401062 442.847748,412.301453 435.819031,412.731537 
	C430.440399,413.060608 424.631683,411.694519 419.506653,409.770630 
	C407.213898,405.156006 395.269745,399.621552 383.062836,394.765228 
	C378.079041,392.782532 373.643280,388.124268 366.236359,391.105377 
	C369.235168,396.065674 372.202362,400.658813 374.847717,405.430359 
	C378.031769,411.173615 381.650238,416.824036 383.771423,422.966736 
	C385.876190,429.062012 386.574036,435.688507 387.470367,442.140198 
	C388.093689,446.626953 388.622467,451.289948 388.058075,455.729889 
	C387.556885,459.672363 385.662140,463.488312 384.075439,467.229919 
	C381.919159,472.314514 380.377960,478.034973 376.952332,482.125610 
	C370.484680,489.848785 363.093658,496.857635 355.648132,503.685425 
	C348.956299,509.822052 342.057861,515.880554 334.561951,520.956726 
	C324.785492,527.577148 314.463104,533.436401 304.110535,539.142212 
	C298.970612,541.975037 293.414215,544.613403 287.728577,545.748474 
	C281.094940,547.072876 274.116486,546.711365 267.283844,546.987915 
	C256.686676,547.416870 249.443832,542.538025 244.900772,533.051758 
	C244.122070,531.425781 242.021927,530.432678 240.532227,529.147217 
	C240.286118,528.677673 240.039993,528.208069 239.780457,527.085083 
	C231.032761,492.739319 231.644821,458.637878 235.279282,424.399933 
	C236.045685,417.180084 236.720413,409.950531 237.437378,402.725433 
	C237.520203,402.342194 237.603043,401.958923 238.017883,401.048126 
	C238.933502,397.574341 239.517120,394.628113 240.100754,391.681854 
	C239.539612,391.408569 238.978455,391.135254 238.417313,390.861938 
	C236.298386,393.592468 234.179459,396.323029 232.060547,399.053589 
	C227.867691,403.217865 223.674850,407.382111 218.946350,411.816010 
	C217.938629,412.721771 217.466583,413.357941 216.994522,413.994080 
	C216.994522,413.994080 217.000000,414.000000 216.660034,414.014954 
	C214.796509,415.588013 213.272949,417.146118 211.749390,418.704224 
	C210.299728,419.967010 208.850082,421.229797 206.867294,422.767517 
	C205.505066,423.972870 204.675964,424.903259 203.846863,425.833679 
	C202.700516,426.729767 201.554138,427.625885 199.874268,428.757996 
	C198.829803,429.590057 198.318832,430.186096 197.807861,430.782135 
	C197.383102,431.120605 196.958359,431.459106 195.993652,431.954468 
	C194.552109,432.972992 193.650543,433.834656 192.748962,434.696320 
	C192.748962,434.696320 192.417603,434.898682 191.914429,435.016663 
	C189.208420,437.016144 187.005600,438.897614 184.802780,440.779114 
	C184.347794,441.078094 183.892807,441.377045 182.931244,441.859070 
	C181.879822,442.612549 181.334930,443.183014 180.790039,443.753479 
	C177.416550,446.090881 174.043091,448.428314 170.085266,450.935028 
	C168.913528,451.625488 168.326157,452.146667 167.738770,452.667847 
	C167.738770,452.667847 167.386108,452.849304 166.855606,452.943115 
	C163.465149,454.919556 160.605179,456.802216 157.745209,458.684845 
M106.390999,182.540329 
	C106.100563,181.709473 105.810135,180.878601 105.259727,179.304016 
	C105.259727,189.099396 105.259727,198.050629 105.259727,207.324524 
	C105.967377,206.334991 106.429001,205.689484 107.443947,205.605377 
	C107.619217,206.921890 107.792038,208.238739 107.970146,209.554871 
	C110.093140,225.243332 116.193802,238.274612 130.128387,247.380646 
	C172.473450,275.052490 217.524490,296.982727 265.571289,312.770264 
	C266.420197,313.049194 267.411621,312.894440 268.764801,312.964111 
	C268.764801,310.987305 268.773132,309.344086 268.763611,307.700989 
	C268.567200,273.759552 264.450623,240.256897 256.867493,207.214737 
	C249.716171,176.054077 238.848938,146.249054 222.277512,118.755554 
	C205.021027,90.125450 182.681213,66.629578 152.949463,50.601475 
	C149.370026,48.671829 148.034927,49.528152 146.672531,52.794285 
	C144.365875,58.324066 141.674805,63.694790 139.409134,69.240166 
	C127.246559,99.008881 115.929787,129.055832 110.394066,160.920441 
	C109.121193,168.247345 108.055969,175.610321 106.390999,182.540329 
M310.493652,303.951569 
	C301.931213,309.784912 293.368744,315.618256 284.027618,321.982056 
	C286.633942,323.612854 288.195557,324.479706 289.640503,325.510162 
	C327.902527,352.796906 369.359344,374.019104 412.856659,391.650909 
	C431.788818,399.325073 449.521027,399.061249 466.593811,388.049988 
	C475.072845,382.581329 483.318298,376.480560 490.690643,369.614777 
	C516.461731,345.614258 536.390564,316.973663 554.553833,287.032196 
	C559.534973,278.820953 564.297729,270.477234 569.463623,261.678345 
	C565.753967,259.915192 562.692139,258.326813 559.528625,256.976776 
	C524.468201,242.014450 488.067810,239.952927 450.957520,246.263382 
	C419.948334,251.536362 390.352264,261.546753 362.236481,275.502563 
	C344.834290,284.140503 328.101898,294.127716 310.493652,303.951569 
M303.523926,523.069275 
	C321.517426,512.784668 337.885040,500.232452 353.497101,486.706207 
	C375.021484,468.057526 379.845337,445.491058 366.538177,420.445129 
	C360.986389,409.995880 353.620209,400.221100 345.692719,391.383148 
	C328.475006,372.187958 307.915924,356.795837 286.143890,343.103210 
	C274.284180,335.644470 275.918488,334.228943 270.144073,348.392578 
	C254.004791,387.979279 248.244339,429.445282 248.938705,471.959198 
	C249.205444,488.290771 250.285614,504.539246 255.051346,520.317139 
	C258.090485,530.378906 261.930084,533.241943 272.308807,533.245117 
	C283.565033,533.248596 293.241058,528.398010 303.523926,523.069275 
M210.294189,312.062439 
	C209.155746,311.833435 208.002274,311.661591 206.881088,311.366943 
	C185.167557,305.660828 163.210922,303.014435 140.784912,305.955811 
	C117.627388,308.993103 101.442276,323.218567 96.683952,345.998749 
	C94.831947,354.865082 94.158417,364.131653 94.212669,373.208374 
	C94.309875,389.472321 94.782578,405.782410 96.224121,421.972961 
	C97.181267,432.723022 100.204926,443.265930 107.831123,451.684357 
	C111.231781,455.438232 115.128960,458.244476 120.515251,456.143616 
	C128.839966,452.896698 137.785889,450.560516 145.225052,445.867310 
	C160.643295,436.140289 175.781036,425.795532 190.066833,414.483246 
	C218.190445,392.213348 241.995590,365.971039 259.559784,334.388306 
	C261.556183,330.798492 261.341736,329.195923 257.354706,327.874207 
	C241.905746,322.752899 226.516190,317.452423 210.294189,312.062439 
z"/>
<path fill="#2D5491" opacity="1.000000" stroke="none" 
	d="
M240.592484,529.517395 
	C242.021927,530.432678 244.122070,531.425781 244.900772,533.051758 
	C249.443832,542.538025 256.686676,547.416870 267.283844,546.987915 
	C274.116486,546.711365 281.094940,547.072876 287.728577,545.748474 
	C293.414215,544.613403 298.970612,541.975037 304.110535,539.142212 
	C314.463104,533.436401 324.785492,527.577148 334.561951,520.956726 
	C342.057861,515.880554 348.956299,509.822052 355.648132,503.685425 
	C363.093658,496.857635 370.484680,489.848785 376.952332,482.125610 
	C380.377960,478.034973 381.919159,472.314514 384.075439,467.229919 
	C385.662140,463.488312 387.556885,459.672363 388.058075,455.729889 
	C388.622467,451.289948 388.093689,446.626953 387.470367,442.140198 
	C386.574036,435.688507 385.876190,429.062012 383.771423,422.966736 
	C381.650238,416.824036 378.031769,411.173615 374.847717,405.430359 
	C372.202362,400.658813 369.235168,396.065674 366.236359,391.105377 
	C373.643280,388.124268 378.079041,392.782532 383.062836,394.765228 
	C395.269745,399.621552 407.213898,405.156006 419.506653,409.770630 
	C424.631683,411.694519 430.440399,413.060608 435.819031,412.731537 
	C442.847748,412.301453 449.900146,410.401062 456.691254,408.315582 
	C473.032928,403.297211 486.519165,393.241028 498.584900,381.675507 
	C510.127106,370.611877 520.910950,358.657074 531.146790,346.360352 
	C540.337402,335.319336 548.307129,323.264008 556.889343,311.711029 
	C557.705261,310.612671 559.048035,309.905640 560.499146,309.007568 
	C553.847900,319.299866 547.223572,329.886230 539.762146,339.845428 
	C523.022461,362.188782 504.642761,383.014435 481.244385,398.777710 
	C467.018646,408.361450 451.742340,414.859863 434.147827,414.426697 
	C422.179749,414.132050 411.462982,409.383453 400.647858,405.091675 
	C390.731018,401.156342 380.976685,396.811493 370.313446,393.298340 
	C371.320343,394.995422 372.242065,396.750275 373.347504,398.380524 
	C382.935181,412.519531 389.884949,427.545044 390.460480,445.059570 
	C391.098083,464.464661 383.982086,480.868500 370.335205,493.933319 
	C350.915131,512.524963 329.551697,528.773376 305.517181,541.114136 
	C294.784271,546.625061 283.439453,550.485901 271.112976,550.421021 
	C255.880844,550.340942 246.428406,543.978455 240.592484,529.517395 
z"/>
<path fill="#2F5893" opacity="1.000000" stroke="none" 
	d="
M475.987152,228.056870 
	C473.478821,228.704132 470.990356,229.810791 468.458740,229.920471 
	C456.433411,230.441452 444.714264,232.438324 433.109344,235.671371 
	C426.021118,237.646118 418.561035,238.263092 411.430237,240.114746 
	C404.908051,241.808365 398.485596,244.047668 392.227936,246.565430 
	C378.011719,252.285355 363.727722,257.904205 349.852600,264.381042 
	C340.597107,268.701477 331.900085,274.266266 323.130646,279.567780 
	C312.251312,286.144836 301.595123,293.090668 290.732574,299.696381 
	C289.284180,300.577240 286.810425,301.154572 285.504761,300.496643 
	C284.213348,299.845947 283.257324,297.507355 283.086761,295.815186 
	C281.627502,281.337494 280.708405,266.799072 278.973785,252.357361 
	C277.366028,238.971817 275.111938,225.655853 272.835724,212.361771 
	C271.539764,204.792770 269.629456,197.328979 267.992554,189.037857 
	C267.660522,187.175079 267.331696,186.092239 267.002869,185.009415 
	C266.990387,184.551926 266.977936,184.094437 266.919006,182.981171 
	C266.249207,181.878799 265.625824,181.432190 265.002441,180.985596 
	C265.001709,180.240570 265.000946,179.495544 264.999023,178.012192 
	C264.665192,176.181961 264.332611,175.090073 264.000000,173.998169 
	C264.000000,173.998169 264.000000,174.000000 264.014709,173.578156 
	C264.116425,172.600662 264.203369,172.045029 264.290314,171.489380 
	C267.355621,181.984116 270.954681,192.356964 273.384399,202.996857 
	C280.185028,232.777847 284.657349,262.915680 285.608246,293.508301 
	C285.657410,295.089478 285.852386,296.666168 286.057251,299.211212 
	C288.294647,297.819977 289.788696,296.950348 291.222565,295.990814 
	C330.326447,269.821808 371.827118,248.671051 417.372681,236.110641 
	C436.330353,230.882553 455.559113,227.018768 475.685059,226.722961 
	C476.014282,227.421387 475.987946,227.738068 475.987152,228.056870 
M456.506714,229.474182 
	C456.506714,229.474182 456.507996,229.512985 456.506714,229.474182 
z"/>
<path fill="#2F5893" opacity="1.000000" stroke="none" 
	d="
M572.004883,286.986694 
	C575.218933,281.401550 578.416687,275.807007 581.651184,270.233765 
	C585.498169,263.605286 582.640930,252.412277 575.821472,248.548935 
	C566.182190,243.088150 555.882751,239.258438 545.059326,236.840149 
	C535.615540,234.730103 526.220703,232.383667 516.735840,230.482742 
	C511.744751,229.482468 506.607330,229.212280 501.266113,228.087921 
	C500.932983,227.236755 500.917358,226.907806 500.949310,226.576599 
	C514.186768,228.494370 527.684937,229.377884 540.585999,232.630096 
	C552.714172,235.687439 564.404114,240.804962 575.929077,245.835770 
	C585.981628,250.223892 589.052979,260.158417 584.094727,269.967224 
	C580.957764,276.173065 577.296936,282.114014 573.424194,288.036926 
	C572.653198,287.595642 572.329041,287.291168 572.004883,286.986694 
M519.506958,229.473969 
	C519.506958,229.473969 519.507812,229.512863 519.506958,229.473969 
z"/>
<path fill="#9FB0C9" opacity="1.000000" stroke="none" 
	d="
M237.161255,402.933502 
	C236.720413,409.950531 236.045685,417.180084 235.279282,424.399933 
	C231.644821,458.637878 231.032761,492.739319 239.699493,526.825684 
	C237.783600,520.813416 235.485779,514.497925 234.171326,507.983978 
	C230.265366,488.627625 230.608749,468.963654 231.393234,449.398590 
	C231.956528,435.350250 233.951523,421.357300 235.405823,407.349792 
	C235.555176,405.911377 236.375916,404.542633 237.161255,402.933502 
z"/>
<path fill="#264F8E" opacity="1.000000" stroke="none" 
	d="
M98.526085,137.165344 
	C99.449623,137.476562 100.809769,138.222168 100.714653,138.571121 
	C97.571609,150.101730 95.561249,161.800186 94.933289,173.746002 
	C94.849152,175.346497 94.051598,176.909500 93.008881,179.035767 
	C91.932304,183.731155 91.431244,187.880630 90.930191,192.030090 
	C91.099144,185.979904 90.660202,179.837173 91.564095,173.898849 
	C93.424019,161.679642 96.001823,149.569702 98.526085,137.165344 
z"/>
<path fill="#9FB0C9" opacity="1.000000" stroke="none" 
	d="
M78.092545,353.249542 
	C78.278221,358.083801 77.975494,363.157623 78.034439,368.227264 
	C78.224869,384.605499 78.548294,400.982117 78.601189,417.671204 
	C77.680580,415.689758 76.396622,413.402832 76.371574,411.102173 
	C76.196098,394.988556 76.203690,378.871399 76.349174,362.757172 
	C76.377106,359.663147 77.273811,356.576996 78.092545,353.249542 
z"/>
<path fill="#264F8E" opacity="1.000000" stroke="none" 
	d="
M226.409698,94.513863 
	C225.418365,94.642601 223.924637,94.790222 223.332565,94.129662 
	C214.790573,84.599602 206.356888,74.972130 197.954956,65.317757 
	C197.498917,64.793732 197.551590,63.827003 197.591110,62.713821 
	C207.318710,72.959831 216.822647,83.558372 226.409698,94.513863 
z"/>
<path fill="#264F8E" opacity="1.000000" stroke="none" 
	d="
M116.582260,81.171570 
	C117.453415,81.671455 118.759277,82.669525 118.593643,83.095650 
	C114.794312,92.870438 110.817902,102.576195 106.914314,112.310783 
	C105.636581,115.497139 104.470421,118.728241 102.922585,121.968933 
	C107.171791,108.467110 111.751656,94.935226 116.582260,81.171570 
z"/>
<path fill="#264F8E" opacity="1.000000" stroke="none" 
	d="
M197.553436,61.881969 
	C192.189209,63.713089 190.496628,58.333160 187.112427,56.229347 
	C179.902481,51.747242 173.138565,46.541904 166.259583,41.539814 
	C165.314087,40.852299 164.755081,39.633308 164.001862,38.278687 
	C176.740021,43.545147 187.107590,52.567329 197.553436,61.881969 
z"/>
<path fill="#264F8E" opacity="1.000000" stroke="none" 
	d="
M93.023087,208.004761 
	C93.682709,209.958435 95.077934,211.993149 94.873169,213.851578 
	C94.037682,221.434540 98.164032,227.551758 100.232452,234.273163 
	C100.450050,234.980270 100.034813,235.882156 99.513428,236.723633 
	C96.659569,229.470856 93.587601,222.324310 91.942505,214.863174 
	C90.571548,208.645370 90.874557,202.058502 90.971336,195.547211 
	C92.012039,199.641144 92.517555,203.822952 93.023087,208.004761 
z"/>
<path fill="#264F8E" opacity="1.000000" stroke="none" 
	d="
M261.992767,168.990601 
	C260.187775,164.971664 258.185394,161.027786 256.622192,156.916916 
	C254.026230,150.090012 251.712418,143.155807 249.494690,135.862366 
	C253.398392,144.261795 257.087158,153.065628 260.941711,162.623810 
	C261.402557,165.248978 261.697662,167.119781 261.992767,168.990601 
z"/>
<path fill="#264F8E" opacity="1.000000" stroke="none" 
	d="
M142.616058,33.118668 
	C138.072769,41.292965 133.189529,49.454269 128.249420,57.581001 
	C128.066391,57.882088 127.328453,57.845844 126.475403,57.982754 
	C129.467575,51.082344 132.602829,44.037270 136.345322,37.331085 
	C137.414230,35.415726 140.244125,34.483105 142.616058,33.118668 
z"/>
<path fill="#264F8E" opacity="1.000000" stroke="none" 
	d="
M245.910370,126.638138 
	C244.618500,125.849228 242.999298,124.911247 242.089645,123.512001 
	C237.759186,116.850792 233.595642,110.079956 229.473938,103.286690 
	C229.196884,102.830063 229.755234,101.866577 230.268066,100.974304 
	C235.710724,109.298683 240.810349,117.787598 245.910370,126.638138 
z"/>
<path fill="#264F8E" opacity="1.000000" stroke="none" 
	d="
M162.730606,37.283012 
	C158.266739,36.743362 153.670700,35.903374 149.090256,34.985485 
	C147.423218,34.651421 145.793365,34.131718 144.054565,33.296967 
	C151.220673,29.448404 156.866943,33.410179 162.730606,37.283012 
z"/>
<path fill="#9FB0C9" opacity="1.000000" stroke="none" 
	d="
M154.033325,282.364838 
	C156.997086,283.380402 160.023605,284.729645 163.050125,286.078888 
	C162.944839,286.617981 162.839539,287.157043 162.734238,287.696106 
	C156.025314,288.073639 149.316376,288.451172 142.173203,288.658203 
	C146.825897,287.498138 151.912827,286.508575 157.205627,285.478973 
	C156.307419,284.675812 155.201752,283.687195 154.033325,282.364838 
z"/>
<path fill="#2F5893" opacity="1.000000" stroke="none" 
	d="
M479.191803,226.468307 
	C485.523529,226.308640 491.855255,226.148972 498.156342,226.453735 
	C491.814392,226.768204 485.503113,226.618256 479.191803,226.468307 
z"/>
<path fill="#9FB0C9" opacity="1.000000" stroke="none" 
	d="
M232.384476,399.026520 
	C234.179459,396.323029 236.298386,393.592468 238.417313,390.861938 
	C238.978455,391.135254 239.539612,391.408569 240.100754,391.681854 
	C239.517120,394.628113 238.933502,397.574341 238.047607,400.755249 
	C237.588364,399.966492 237.431381,398.943024 237.468628,397.372803 
	C237.645081,396.394684 237.627289,395.963318 237.609497,395.531982 
	C237.261017,395.904938 236.912537,396.277893 236.564056,396.650818 
	C235.278839,397.433685 233.993622,398.216583 232.384476,399.026520 
z"/>
<path fill="#9FB0C9" opacity="1.000000" stroke="none" 
	d="
M78.405655,421.063599 
	C79.935020,426.600952 81.275093,432.556641 82.495438,438.900635 
	C80.989258,433.353271 79.602814,427.417603 78.405655,421.063599 
z"/>
<path fill="#184085" opacity="1.000000" stroke="none" 
	d="
M93.016624,207.535614 
	C92.517555,203.822952 92.012039,199.641144 91.173828,195.193634 
	C90.754166,194.189713 90.667191,193.451492 90.755203,192.371689 
	C91.431244,187.880630 91.932304,183.731155 92.724426,179.289001 
	C93.013718,188.353027 93.011948,197.709732 93.016624,207.535614 
z"/>
<path fill="#163B84" opacity="1.000000" stroke="none" 
	d="
M478.802094,226.361725 
	C485.503113,226.618256 491.814392,226.768204 498.455536,226.703644 
	C499.274658,226.425354 499.763977,226.361557 500.601288,226.437180 
	C500.917358,226.907806 500.932983,227.236755 501.004669,227.812164 
	C492.984344,228.047653 484.955627,228.034409 476.457031,228.039017 
	C475.987946,227.738068 476.014282,227.421387 476.060394,226.869019 
	C476.840515,226.505859 477.626434,226.380508 478.802094,226.361725 
z"/>
<path fill="#9FB0C9" opacity="1.000000" stroke="none" 
	d="
M138.953934,273.486023 
	C143.603058,275.775024 148.326691,278.391846 153.169647,281.319885 
	C148.535477,279.025391 143.781952,276.419647 138.953934,273.486023 
z"/>
<path fill="#2F5893" opacity="1.000000" stroke="none" 
	d="
M565.331299,301.932068 
	C565.839111,299.503693 566.648560,296.944366 568.038635,294.186005 
	C569.030762,293.942810 569.442322,293.898651 569.894531,293.894806 
	C569.935181,293.935120 570.016541,294.015778 570.016541,294.015778 
	C568.555359,296.610901 567.094116,299.206024 565.331299,301.932068 
z"/>
<path fill="#9FB0C9" opacity="1.000000" stroke="none" 
	d="
M80.884735,337.226196 
	C80.507698,341.302917 79.831245,345.606842 78.876022,350.134399 
	C79.259941,346.056488 79.922623,341.754944 80.884735,337.226196 
z"/>
<path fill="#264F8E" opacity="1.000000" stroke="none" 
	d="
M101.836746,124.277679 
	C102.646942,124.440590 103.824768,125.107956 103.754448,125.288101 
	C102.741425,127.883255 101.560516,130.412872 100.055328,133.029510 
	C100.335144,130.252396 100.979546,127.403976 101.836746,124.277679 
z"/>
<path fill="#9FB0C9" opacity="1.000000" stroke="none" 
	d="
M88.242447,454.121765 
	C90.843483,456.958038 93.377632,460.154205 95.935265,463.694458 
	C93.364357,460.852966 90.769966,457.667297 88.242447,454.121765 
z"/>
<path fill="#9FB0C9" opacity="1.000000" stroke="none" 
	d="
M101.904854,304.258057 
	C99.790337,306.884216 97.326538,309.458344 94.539200,312.112915 
	C96.662285,309.530884 99.108932,306.868469 101.904854,304.258057 
z"/>
<path fill="#9FB0C9" opacity="1.000000" stroke="none" 
	d="
M118.856140,294.234192 
	C115.994583,296.126129 112.757332,297.957611 109.162399,299.747437 
	C112.029961,297.861786 115.255196,296.017761 118.856140,294.234192 
z"/>
<path fill="#9FB0C9" opacity="1.000000" stroke="none" 
	d="
M147.074860,464.678955 
	C149.908905,462.736664 153.111069,460.866119 156.678223,459.021912 
	C153.843155,460.949097 150.643082,462.849915 147.074860,464.678955 
z"/>
<path fill="#9FB0C9" opacity="1.000000" stroke="none" 
	d="
M158.110703,458.755219 
	C160.605179,456.802216 163.465149,454.919556 166.684326,453.043091 
	C164.187775,454.974670 161.331985,456.900116 158.110703,458.755219 
z"/>
<path fill="#264F8E" opacity="1.000000" stroke="none" 
	d="
M119.581558,73.680771 
	C123.658455,77.146591 119.203529,77.897141 117.402443,79.822388 
	C117.844421,77.926933 118.587929,75.880348 119.581558,73.680771 
z"/>
<path fill="#9FB0C9" opacity="1.000000" stroke="none" 
	d="
M185.160370,440.806763 
	C187.005600,438.897614 189.208420,437.016144 191.759018,435.132996 
	C189.910507,437.032379 187.714233,438.933380 185.160370,440.806763 
z"/>
<path fill="#9FB0C9" opacity="1.000000" stroke="none" 
	d="
M112.941406,473.838989 
	C115.270699,473.434967 117.815498,473.306671 120.812119,473.347839 
	C118.561600,473.716431 115.859253,473.915558 112.941406,473.838989 
z"/>
<path fill="#9FB0C9" opacity="1.000000" stroke="none" 
	d="
M136.957809,469.419647 
	C139.227615,467.908813 141.844009,466.544067 144.821960,465.227753 
	C142.557144,466.706024 139.930771,468.135895 136.957809,469.419647 
z"/>
<path fill="#264F8E" opacity="1.000000" stroke="none" 
	d="
M125.509201,59.059395 
	C125.079666,60.817863 124.376213,62.753071 123.403946,64.826019 
	C123.835190,63.054554 124.535240,61.145344 125.509201,59.059395 
z"/>
<path fill="#9FB0C9" opacity="1.000000" stroke="none" 
	d="
M212.096771,418.749634 
	C213.272949,417.146118 214.796509,415.588013 216.657074,414.012177 
	C215.477463,415.594666 213.960815,417.194824 212.096771,418.749634 
z"/>
<path fill="#2F5893" opacity="1.000000" stroke="none" 
	d="
M261.997131,168.995941 
	C261.697662,167.119781 261.402557,165.248978 261.132080,162.962646 
	C262.107147,164.775757 263.057587,167.004379 263.726807,169.507324 
	C262.966797,169.524475 262.488068,169.267288 262.009308,169.010101 
	C262.009308,169.010101 262.001465,169.001282 261.997131,168.995941 
z"/>
<path fill="#264F8E" opacity="1.000000" stroke="none" 
	d="
M262.002869,169.404922 
	C262.488068,169.267288 262.966797,169.524475 263.696747,169.888092 
	C264.082611,170.317505 264.217316,170.640472 264.321167,171.226410 
	C264.203369,172.045029 264.116425,172.600662 264.015503,173.578156 
	C263.333160,172.599915 262.664795,171.199829 262.002869,169.404922 
z"/>
<path fill="#264F8E" opacity="1.000000" stroke="none" 
	d="
M229.967514,99.684937 
	C229.244446,99.212570 228.496445,98.421837 227.868164,97.327873 
	C228.639435,97.805290 229.291000,98.585938 229.967514,99.684937 
z"/>
<path fill="#9FB0C9" opacity="1.000000" stroke="none" 
	d="
M89.597763,318.017242 
	C89.244514,319.292480 88.560875,320.644409 87.568413,322.106384 
	C87.928848,320.842255 88.598106,319.468109 89.597763,318.017242 
z"/>
<path fill="#9FB0C9" opacity="1.000000" stroke="none" 
	d="
M133.960495,270.509155 
	C135.237564,270.847595 136.609436,271.507355 138.079010,272.484619 
	C136.802917,272.144897 135.429108,271.487671 133.960495,270.509155 
z"/>
<path fill="#9FB0C9" opacity="1.000000" stroke="none" 
	d="
M204.185577,425.838043 
	C204.675964,424.903259 205.505066,423.972870 206.657425,423.009521 
	C206.161896,423.931885 205.343109,424.887146 204.185577,425.838043 
z"/>
<path fill="#264F8E" opacity="1.000000" stroke="none" 
	d="
M99.197464,237.126556 
	C100.105690,237.868958 100.883018,238.868790 101.456467,240.234589 
	C100.523926,239.528366 99.795242,238.456177 99.197464,237.126556 
z"/>
<path fill="#264F8E" opacity="1.000000" stroke="none" 
	d="
M248.411224,131.686096 
	C247.624374,131.023697 246.863907,130.046158 246.157806,128.673096 
	C246.953995,129.308701 247.695786,130.339828 248.411224,131.686096 
z"/>
<path fill="#9FB0C9" opacity="1.000000" stroke="none" 
	d="
M193.085632,434.755585 
	C193.650543,433.834656 194.552109,432.972992 195.781799,432.124664 
	C195.214050,433.030273 194.318176,433.922546 193.085632,434.755585 
z"/>
<path fill="#264F8E" opacity="1.000000" stroke="none" 
	d="
M122.571297,66.118744 
	C123.365402,66.307442 123.931038,66.687813 124.496681,67.068184 
	C123.878410,67.373558 123.260147,67.678940 122.296844,67.997025 
	C122.082153,67.443298 122.212494,66.876854 122.571297,66.118744 
z"/>
<path fill="#264F8E" opacity="1.000000" stroke="none" 
	d="
M121.400948,68.881760 
	C121.549438,69.505653 121.487511,70.235634 121.089478,71.024887 
	C120.899094,70.385391 121.044815,69.686615 121.400948,68.881760 
z"/>
<path fill="#9FB0C9" opacity="1.000000" stroke="none" 
	d="
M139.776810,288.546997 
	C139.143799,289.044312 138.301422,289.324280 137.233246,289.423401 
	C137.860764,288.938263 138.714111,288.633972 139.776810,288.546997 
z"/>
<path fill="#9FB0C9" opacity="1.000000" stroke="none" 
	d="
M123.197388,473.432922 
	C123.870712,472.917847 124.730629,472.612030 125.931351,472.442566 
	C125.309418,472.933350 124.346695,473.287781 123.197388,473.432922 
z"/>
<path fill="#9FB0C9" opacity="1.000000" stroke="none" 
	d="
M134.041901,289.502319 
	C133.384369,290.051727 132.407928,290.425659 131.107666,290.713684 
	C131.763565,290.194122 132.743286,289.760437 134.041901,289.502319 
z"/>
<path fill="#2F5893" opacity="1.000000" stroke="none" 
	d="
M571.001648,290.995056 
	C571.001648,290.995056 571.435303,290.980499 571.651978,290.970032 
	C571.432190,291.875793 570.995789,292.792084 570.287964,293.862061 
	C570.016541,294.015778 569.935181,293.935120 569.941772,293.589203 
	C569.964783,292.829681 569.981201,292.416046 569.997559,292.002441 
	C569.997559,292.002441 570.000000,292.000000 570.220459,291.890198 
	C570.713257,291.579529 570.900146,291.317749 571.001648,290.995056 
z"/>
<path fill="#9FB0C9" opacity="1.000000" stroke="none" 
	d="
M181.114700,443.796326 
	C181.334930,443.183014 181.879822,442.612549 182.739075,442.052002 
	C182.515427,442.654358 181.977386,443.246765 181.114700,443.796326 
z"/>
<path fill="#9FB0C9" opacity="1.000000" stroke="none" 
	d="
M198.135056,430.800720 
	C198.318832,430.186096 198.829803,429.590057 199.650101,428.973938 
	C199.460373,429.575653 198.961304,430.197479 198.135056,430.800720 
z"/>
<path fill="#9FB0C9" opacity="1.000000" stroke="none" 
	d="
M108.827347,472.872620 
	C109.337929,472.670654 109.967369,472.685181 110.795288,472.965576 
	C110.311241,473.183990 109.628731,473.136536 108.827347,472.872620 
z"/>
<path fill="#264F8E" opacity="1.000000" stroke="none" 
	d="
M249.726990,135.038574 
	C248.999069,135.292587 248.310547,135.303528 247.622009,135.314468 
	C247.933090,134.897781 248.244186,134.481094 248.895630,134.018433 
	C249.521896,134.176651 249.698700,134.451004 249.726990,135.038574 
z"/>
<path fill="#9FB0C9" opacity="1.000000" stroke="none" 
	d="
M82.632584,441.175232 
	C83.156395,441.525391 83.486008,442.039398 83.749298,442.873169 
	C83.268112,442.574982 82.853241,441.957001 82.632584,441.175232 
z"/>
<path fill="#9FB0C9" opacity="1.000000" stroke="none" 
	d="
M98.009033,466.351044 
	C98.641136,466.443726 99.310616,466.857727 100.046310,467.578552 
	C99.423820,467.481049 98.735115,467.076691 98.009033,466.351044 
z"/>
<path fill="#9FB0C9" opacity="1.000000" stroke="none" 
	d="
M168.056824,452.731049 
	C168.326157,452.146667 168.913528,451.625488 169.813599,451.137878 
	C169.542480,451.712341 168.958664,452.253296 168.056824,452.731049 
z"/>
<path fill="#9FB0C9" opacity="1.000000" stroke="none" 
	d="
M128.171448,472.362671 
	C128.533966,471.853912 129.057724,471.541992 129.900360,471.304321 
	C129.590393,471.772217 128.961533,472.165863 128.171448,472.362671 
z"/>
<path fill="#9FB0C9" opacity="1.000000" stroke="none" 
	d="
M217.315063,413.984833 
	C217.466583,413.357941 217.938629,412.721771 218.729584,412.069824 
	C218.577515,412.694550 218.106552,413.335052 217.315063,413.984833 
z"/>
<path fill="#9FB0C9" opacity="1.000000" stroke="none" 
	d="
M83.455704,329.885040 
	C83.580750,330.433838 83.453476,331.049255 83.040741,331.825592 
	C82.904655,331.308228 83.054016,330.629944 83.455704,329.885040 
z"/>
<path fill="#9FB0C9" opacity="1.000000" stroke="none" 
	d="
M86.595367,323.028687 
	C86.652847,323.649933 86.395370,324.370483 85.871582,325.230774 
	C85.830322,324.623016 86.055367,323.875488 86.595367,323.028687 
z"/>
<path fill="#264F8E" opacity="1.000000" stroke="none" 
	d="
M101.273933,240.995743 
	C101.995918,240.721054 102.682449,240.690033 103.368988,240.658997 
	C103.076225,241.081696 102.783455,241.504410 102.154602,241.975372 
	C101.510330,241.846970 101.316978,241.585556 101.273933,240.995743 
z"/>
<path fill="#9FB0C9" opacity="1.000000" stroke="none" 
	d="
M105.924606,301.248871 
	C105.704498,301.874817 105.155540,302.436707 104.294533,302.990875 
	C104.520241,302.383698 105.057999,301.784271 105.924606,301.248871 
z"/>
<path fill="#2D5491" opacity="1.000000" stroke="none" 
	d="
M571.775146,287.164703 
	C572.329041,287.291168 572.653198,287.595642 573.124329,288.204651 
	C573.271301,288.509186 573.311584,288.820618 573.185791,288.914673 
	C572.555115,288.453369 572.050232,287.898071 571.775146,287.164703 
z"/>
<path fill="#9FB0C9" opacity="1.000000" stroke="none" 
	d="
M123.068665,292.531189 
	C122.720840,293.084381 122.076797,293.492249 121.138351,293.832581 
	C121.486778,293.305298 122.129608,292.845581 123.068665,292.531189 
z"/>
<path fill="#2D5491" opacity="1.000000" stroke="none" 
	d="
M561.527100,307.583649 
	C561.383179,307.284760 561.581604,306.831146 562.135132,306.233643 
	C562.283325,306.536163 562.076355,306.982544 561.527100,307.583649 
z"/>
<path fill="#F5CB47" opacity="1.000000" stroke="none" 
	d="
M106.895187,182.956696 
	C108.055969,175.610321 109.121193,168.247345 110.394066,160.920441 
	C115.929787,129.055832 127.246559,99.008881 139.409134,69.240166 
	C141.674805,63.694790 144.365875,58.324066 146.672531,52.794285 
	C148.034927,49.528152 149.370026,48.671829 152.949463,50.601475 
	C182.681213,66.629578 205.021027,90.125450 222.277512,118.755554 
	C238.848938,146.249054 249.716171,176.054077 256.867493,207.214737 
	C264.450623,240.256897 268.567200,273.759552 268.763611,307.700989 
	C268.773132,309.344086 268.764801,310.987305 268.764801,312.964111 
	C267.411621,312.894440 266.420197,313.049194 265.571289,312.770264 
	C217.524490,296.982727 172.473450,275.052490 130.128387,247.380646 
	C116.193802,238.274612 110.093140,225.243332 107.970146,209.554871 
	C107.792038,208.238739 107.619217,206.921890 107.241440,204.857635 
	C106.991013,197.058823 106.943100,190.007767 106.895187,182.956696 
z"/>
<path fill="#50B0E7" opacity="1.000000" stroke="none" 
	d="
M310.781250,303.730408 
	C328.101898,294.127716 344.834290,284.140503 362.236481,275.502563 
	C390.352264,261.546753 419.948334,251.536362 450.957520,246.263382 
	C488.067810,239.952927 524.468201,242.014450 559.528625,256.976776 
	C562.692139,258.326813 565.753967,259.915192 569.463623,261.678345 
	C564.297729,270.477234 559.534973,278.820953 554.553833,287.032196 
	C536.390564,316.973663 516.461731,345.614258 490.690643,369.614777 
	C483.318298,376.480560 475.072845,382.581329 466.593811,388.049988 
	C449.521027,399.061249 431.788818,399.325073 412.856659,391.650909 
	C369.359344,374.019104 327.902527,352.796906 289.640503,325.510162 
	C288.195557,324.479706 286.633942,323.612854 284.027618,321.982056 
	C293.368744,315.618256 301.931213,309.784912 310.781250,303.730408 
z"/>
<path fill="#D94144" opacity="1.000000" stroke="none" 
	d="
M303.213379,523.265564 
	C293.241058,528.398010 283.565033,533.248596 272.308807,533.245117 
	C261.930084,533.241943 258.090485,530.378906 255.051346,520.317139 
	C250.285614,504.539246 249.205444,488.290771 248.938705,471.959198 
	C248.244339,429.445282 254.004791,387.979279 270.144073,348.392578 
	C275.918488,334.228943 274.284180,335.644470 286.143890,343.103210 
	C307.915924,356.795837 328.475006,372.187958 345.692719,391.383148 
	C353.620209,400.221100 360.986389,409.995880 366.538177,420.445129 
	C379.845337,445.491058 375.021484,468.057526 353.497101,486.706207 
	C337.885040,500.232452 321.517426,512.784668 303.213379,523.265564 
z"/>
<path fill="#73B659" opacity="1.000000" stroke="none" 
	d="
M210.699356,312.140564 
	C226.516190,317.452423 241.905746,322.752899 257.354706,327.874207 
	C261.341736,329.195923 261.556183,330.798492 259.559784,334.388306 
	C241.995590,365.971039 218.190445,392.213348 190.066833,414.483246 
	C175.781036,425.795532 160.643295,436.140289 145.225052,445.867310 
	C137.785889,450.560516 128.839966,452.896698 120.515251,456.143616 
	C115.128960,458.244476 111.231781,455.438232 107.831123,451.684357 
	C100.204926,443.265930 97.181267,432.723022 96.224121,421.972961 
	C94.782578,405.782410 94.309875,389.472321 94.212669,373.208374 
	C94.158417,364.131653 94.831947,354.865082 96.683952,345.998749 
	C101.442276,323.218567 117.627388,308.993103 140.784912,305.955811 
	C163.210922,303.014435 185.167557,305.660828 206.881088,311.366943 
	C208.002274,311.661591 209.155746,311.833435 210.699356,312.140564 
z"/>
<path fill="#1A449F" opacity="1.000000" stroke="none" 
	d="
M106.643097,182.748505 
	C106.943100,190.007767 106.991013,197.058823 106.964783,204.576935 
	C106.429001,205.689484 105.967377,206.334991 105.259727,207.324524 
	C105.259727,198.050629 105.259727,189.099396 105.259727,179.304016 
	C105.810135,180.878601 106.100563,181.709473 106.643097,182.748505 
z"/>
<path fill="#264F8E" opacity="1.000000" stroke="none" 
	d="
M263.996948,174.365097 
	C264.332611,175.090073 264.665192,176.181961 264.998901,177.639679 
	C264.664612,176.914337 264.329254,175.823181 263.996948,174.365097 
z"/>
<path fill="#264F8E" opacity="1.000000" stroke="none" 
	d="
M265.039246,181.301941 
	C265.625824,181.432190 266.249207,181.878799 266.896973,182.638626 
	C266.306244,182.507324 265.691162,182.062790 265.039246,181.301941 
z"/>
<path fill="#264F8E" opacity="1.000000" stroke="none" 
	d="
M267.001160,185.373383 
	C267.331696,186.092239 267.660522,187.175079 267.989380,188.620117 
	C267.659424,187.900681 267.329437,186.819000 267.001160,185.373383 
z"/>
<path fill="#2D5491" opacity="1.000000" stroke="none" 
	d="
M569.677612,292.042786 
	C569.981201,292.416046 569.964783,292.829681 569.901123,293.548889 
	C569.442322,293.898651 569.030762,293.942810 568.307739,293.989807 
	C568.450012,293.356140 568.903809,292.719635 569.677612,292.042786 
z"/>
<path fill="#2D5491" opacity="1.000000" stroke="none" 
	d="
M570.852783,290.837952 
	C570.900146,291.317749 570.713257,291.579529 570.221680,291.888367 
	C570.236267,291.557861 570.470093,291.119354 570.852783,290.837952 
z"/>
<path fill="#FDFEFE" opacity="1.000000" stroke="none" 
	d="
M456.507355,229.493591 
	C456.507996,229.512985 456.506714,229.474182 456.507355,229.493591 
z"/>
<path fill="#FDFEFE" opacity="1.000000" stroke="none" 
	d="
M519.507385,229.493408 
	C519.507812,229.512863 519.506958,229.473969 519.507385,229.493408 
z"/>
<path fill="#FDFEFE" opacity="1.000000" stroke="none" 
	d="
M236.749603,396.800079 
	C236.912537,396.277893 237.261017,395.904938 237.609497,395.531982 
	C237.627289,395.963318 237.645081,396.394684 237.481094,397.041199 
	C237.299301,397.256348 236.935165,396.949341 236.749603,396.800079 
z"/>
</svg>